<svg width="80" height="80" viewBox="0 0 80 80" fill="none" xmlns="http://www.w3.org/2000/svg">
<path d="M44.3306 10.4932L73.1106 60.3398C73.5494 61.0999 73.7805 61.9621 73.7805 62.8398C73.7805 63.7175 73.5494 64.5797 73.1106 65.3398C72.6718 66.0999 72.0406 66.7311 71.2805 67.1699C70.5205 67.6088 69.6583 67.8398 68.7806 67.8398H11.2206C10.3429 67.8398 9.4807 67.6088 8.72062 67.1699C7.96054 66.7311 7.32937 66.0999 6.89054 65.3398C6.45172 64.5797 6.2207 63.7175 6.2207 62.8398C6.22071 61.9621 6.45174 61.0999 6.89058 60.3398L35.6706 10.4932C37.5939 7.15983 42.4039 7.15983 44.3306 10.4932ZM40.0006 49.9998C39.1165 49.9998 38.2687 50.351 37.6436 50.9761C37.0184 51.6013 36.6672 52.4491 36.6672 53.3332C36.6672 54.2172 37.0184 55.0651 37.6436 55.6902C38.2687 56.3153 39.1165 56.6665 40.0006 56.6665C40.8846 56.6665 41.7325 56.3153 42.3576 55.6902C42.9827 55.0651 43.3339 54.2172 43.3339 53.3332C43.3339 52.4491 42.9827 51.6013 42.3576 50.9761C41.7325 50.351 40.8846 49.9998 40.0006 49.9998ZM40.0006 26.6665C39.1841 26.6666 38.3961 26.9664 37.786 27.5089C37.1759 28.0514 36.7861 28.799 36.6906 29.6098L36.6672 29.9998V43.3332C36.6682 44.1828 36.9935 44.9999 37.5767 45.6177C38.16 46.2355 38.9571 46.6073 39.8052 46.6571C40.6534 46.7069 41.4885 46.4309 42.14 45.8856C42.7915 45.3403 43.2102 44.5668 43.3106 43.7232L43.3339 43.3332V29.9998C43.3339 29.1158 42.9827 28.2679 42.3576 27.6428C41.7325 27.0177 40.8846 26.6665 40.0006 26.6665Z" fill="white"/>
</svg>
