<?xml version="1.0" encoding="UTF-8"?>
<svg version="1.1" xmlns="http://www.w3.org/2000/svg" width="100" height="100">
<path d="M0 0 C1.69962891 0.01353516 1.69962891 0.01353516 3.43359375 0.02734375 C4.98240234 0.04474609 4.98240234 0.04474609 6.5625 0.0625 C8.8806823 0.0625 11.20006656 0.03213969 13.515625 -0.078125 C20.42584701 -0.30737407 25.92333558 -0.2465421 31.5625 4.0625 C35.5625 8.2625 35.5625 8.2625 35.5625 11.0625 C36.243125 11.10375 36.92375 11.145 37.625 11.1875 C42.8615003 12.7473086 46.39081393 16.18726109 49.25390625 20.76953125 C50.78574178 24.62426961 50.97083276 27.98385788 50.875 32.0625 C50.87822266 32.74828125 50.88144531 33.4340625 50.88476562 34.140625 C50.84944401 37.50581135 50.5207688 40.18327837 49.41796875 43.375 C48.99451172 44.7053125 48.99451172 44.7053125 48.5625 46.0625 C49.2225 47.0525 49.8825 48.0425 50.5625 49.0625 C50.828125 51.62109375 50.828125 51.62109375 50.8125 54.5 C50.82023437 55.92119141 50.82023437 55.92119141 50.828125 57.37109375 C50.55998089 60.08802453 49.94781142 61.73715583 48.5625 64.0625 C47.0775 63.5675 47.0775 63.5675 45.5625 63.0625 C44.58001476 59.0097484 44.48090426 55.22388263 44.5625 51.0625 C42.891875 51.805 42.891875 51.805 41.1875 52.5625 C36.29630807 54.42956789 31.7317808 54.34850529 26.5625 54.0625 C26.5625 52.7425 26.5625 51.4225 26.5625 50.0625 C27.38234375 49.88074219 28.2021875 49.69898438 29.046875 49.51171875 C30.66335937 49.13466797 30.66335937 49.13466797 32.3125 48.75 C33.37984375 48.50636719 34.4471875 48.26273438 35.546875 48.01171875 C38.5225883 47.07506288 40.27942072 46.15532267 42.5625 44.0625 C45.59638497 38.14642431 45.67236725 30.24126191 43.98046875 23.87109375 C41.70632441 19.06319955 38.32191082 17.85650868 33.671875 16.09375 C30.50946233 14.54768158 29.3266431 12.02374021 27.5625 9.0625 C23.09907144 5.12418068 18.18918269 5.76750887 12.5625 6.0625 C11.80430467 10.78110058 11.43630171 15.30287778 11.43310547 20.08007812 C11.43135315 20.74285263 11.42960083 21.40562714 11.42779541 22.08848572 C11.42343117 24.2569346 11.42629561 26.42530044 11.4296875 28.59375 C11.4290129 30.11397314 11.42804157 31.63419617 11.42678833 33.15441895 C11.42531871 36.33163486 11.42744221 39.50882254 11.43212891 42.68603516 C11.43782574 46.74431861 11.4345428 50.80253592 11.42855644 54.86081696 C11.42493095 57.9973398 11.42609854 61.13384715 11.42868423 64.27037048 C11.429348 65.76618966 11.42854444 67.26201027 11.42620468 68.75782776 C11.42364539 70.85356336 11.42756454 72.94919403 11.43310547 75.04492188 C11.43390106 76.23404175 11.43469666 77.42316162 11.43551636 78.64831543 C11.50212761 82.14157485 11.50212761 82.14157485 12.13308716 85.87609863 C12.5625 89.0625 12.5625 89.0625 11.5625 91.0625 C5.34128019 92.69966311 -2.44077842 93.31113399 -8.4375 90.8125 C-10.4375 89.0625 -10.4375 89.0625 -11.75 87.0625 C-13.64945994 84.81128821 -14.63691738 84.51917089 -17.375 83.625 C-21.39299215 82.21907273 -23.4299386 80.9939744 -25.4375 77.0625 C-25.74690565 73.70029197 -25.67272305 70.42749634 -25.4375 67.0625 C-26.200625 66.835625 -26.96375 66.60875 -27.75 66.375 C-31.09278101 64.74247904 -31.91023901 63.42247419 -33.4375 60.0625 C-34.99017453 54.56842088 -33.97182777 50.13115553 -31.4375 45.0625 C-31.73785156 44.35738281 -32.03820312 43.65226562 -32.34765625 42.92578125 C-34.71730766 36.70013793 -34.70328508 27.65586509 -32.4921875 21.37890625 C-30.16896943 17.51418185 -27.27837745 14.46304841 -23.4375 12.0625 C-22.550625 11.918125 -21.66375 11.77375 -20.75 11.625 C-19.986875 11.439375 -19.22375 11.25375 -18.4375 11.0625 C-18.004375 9.94875 -18.004375 9.94875 -17.5625 8.8125 C-15.94882576 4.86796298 -13.05675817 3.15828424 -9.4375 1.0625 C-6.07889366 -0.05703545 -3.5328126 -0.03609003 0 0 Z M-13.3125 11.1875 C-14.60899859 12.98389648 -14.60899859 12.98389648 -14.4375 15.0625 C-15.489375 15.289375 -16.54125 15.51625 -17.625 15.75 C-22.24845907 17.06965127 -25.00650998 19.79179709 -27.5625 23.84765625 C-28.69210891 26.70697882 -28.66680164 29.05827998 -28.625 32.125 C-28.61855469 33.16785156 -28.61210937 34.21070313 -28.60546875 35.28515625 C-28.55232965 38.14864608 -28.55232965 38.14864608 -27.4375 41.0625 C-26.32375 40.5675 -26.32375 40.5675 -25.1875 40.0625 C-19.15620118 38.45415365 -12.43258698 37.7086707 -6.62890625 40.33203125 C-4.4375 42.0625 -4.4375 42.0625 -3.625 44.25 C-3.5321875 45.1471875 -3.5321875 45.1471875 -3.4375 46.0625 C-4.571875 45.5675 -5.70625 45.0725 -6.875 44.5625 C-11.42612724 42.8980418 -15.63986244 41.97251794 -20.4375 43.0625 C-23.8084039 45.12284687 -26.65634228 47.50018456 -28.4375 51.0625 C-29.02105922 56.64841202 -29.02105922 56.64841202 -26.75 61.5 C-24.25124721 63.18834648 -22.41502446 63.73166395 -19.4375 64.0625 C-19.7675 65.0525 -20.0975 66.0425 -20.4375 67.0625 C-21.00504069 72.58582593 -21.00504069 72.58582593 -18.875 77.4375 C-16.39882599 79.27880976 -16.39882599 79.27880976 -12.875 80 C-9.4375 81.0625 -9.4375 81.0625 -7.625 83.625 C-7.233125 84.429375 -6.84125 85.23375 -6.4375 86.0625 C-3.32888092 87.61680954 0.22074747 87.94922245 3.5625 87.0625 C6.55912071 83.1163763 6.93387503 80.15988714 6.91894531 75.27197266 C6.92098969 74.6094902 6.92303406 73.94700775 6.92514038 73.26445007 C6.92813654 71.08486887 6.90970194 68.90605326 6.890625 66.7265625 C6.88756414 65.20348294 6.88569051 63.68040057 6.88494873 62.15731812 C6.88035238 58.96805062 6.86595606 55.77903655 6.84375 52.58984375 C6.81551653 48.5157946 6.80454203 44.44194508 6.8000679 40.36780739 C6.79489256 36.46653377 6.78035983 32.5653095 6.765625 28.6640625 C6.76280392 27.55736143 6.76280392 27.55736143 6.75992584 26.42830276 C6.75299438 24.32274064 6.73932932 22.21732931 6.72363281 20.11181641 C6.71680481 18.91666412 6.70997681 17.72151184 6.70294189 16.49014282 C6.82830794 10.34661809 6.82830794 10.34661809 4.5625 5.0625 C-3.11241924 4.18082378 -8.03274821 5.2037813 -13.3125 11.1875 Z " fill="#fff" transform="translate(41.4375,3.9375)"/>
<path d="M0 0 C1.39387939 0.13196777 1.39387939 0.13196777 2.81591797 0.26660156 C3.35949951 1.23315674 3.35949951 1.23315674 3.9140625 2.21923828 C5.5882316 5.19417765 7.26456291 8.16789346 8.94091797 11.14160156 C9.79556641 12.66140625 9.79556641 12.66140625 10.66748047 14.21191406 C13.89777441 19.93834423 17.19739674 25.59410422 20.70239258 31.1574707 C22.18672109 33.96894057 22.37467231 36.15354168 21.81591797 39.26660156 C19.86727872 41.21524081 16.91783077 40.39578896 14.32470703 40.4055481 C13.41430664 40.40352386 12.50390625 40.40149963 11.56591797 40.39941406 C10.6374707 40.40037079 9.70902344 40.40132751 8.75244141 40.40231323 C6.78531832 40.40299511 4.81819301 40.40114028 2.85107422 40.39697266 C-0.17111229 40.39162451 -3.19315018 40.39691738 -6.21533203 40.40332031 C-8.12158236 40.40265953 -10.0278326 40.40137837 -11.93408203 40.39941406 C-13.29968262 40.40245041 -13.29968262 40.40245041 -14.69287109 40.4055481 C-21.06913235 40.38155125 -21.06913235 40.38155125 -22.18408203 39.26660156 C-22.56682702 34.65884577 -21.86443087 31.96786794 -19.55126953 28.00097656 C-18.99181641 27.02773437 -18.43236328 26.05449219 -17.85595703 25.05175781 C-17.26298828 24.05015625 -16.67001953 23.04855469 -16.05908203 22.01660156 C-15.48931641 21.03046875 -14.91955078 20.04433594 -14.33251953 19.02832031 C-13.19256984 17.0619071 -12.03998284 15.10276241 -10.87451172 13.15136719 C-9.74721602 11.22760549 -8.66401086 9.27732512 -7.62646484 7.30371094 C-7.13243164 6.38912109 -6.63839844 5.47453125 -6.12939453 4.53222656 C-5.70416504 3.71012695 -5.27893555 2.88802734 -4.84082031 2.04101562 C-3.18408203 0.26660156 -3.18408203 0.26660156 0 0 Z M-1.18408203 6.26660156 C-1.45559082 6.78456299 -1.72709961 7.30252441 -2.00683594 7.83618164 C-3.27332345 10.25097617 -4.54119971 12.6650391 -5.80908203 15.07910156 C-6.44910156 16.30016602 -6.44910156 16.30016602 -7.10205078 17.54589844 C-10.40069426 23.82316774 -13.78736022 30.03927825 -17.18408203 36.26660156 C-5.96408203 36.26660156 5.25591797 36.26660156 16.81591797 36.26660156 C10.72178681 24.77420605 10.72178681 24.77420605 4.44091797 13.39160156 C4.11220703 12.79992187 3.78349609 12.20824219 3.44482422 11.59863281 C1.71178175 8.3643573 1.71178175 8.3643573 -1.18408203 6.26660156 Z " fill="#fff" transform="translate(78.18408203125,59.7333984375)"/>
<path d="M0 0 C1.32 0 2.64 0 4 0 C4.25394531 0.55429687 4.50789063 1.10859375 4.76953125 1.6796875 C5.11371094 2.40414063 5.45789063 3.12859375 5.8125 3.875 C6.14894531 4.59429688 6.48539062 5.31359375 6.83203125 6.0546875 C9.35387572 10.25495019 13.54773761 10.82393069 18 12 C18 13.32 18 14.64 18 16 C13.28809898 16.37695208 9.92629407 16.46314703 5.625 14.3125 C2.91907489 11.92870883 1.3900657 10.3207125 0 7 C-0.1875 3.1875 -0.1875 3.1875 0 0 Z " fill="#fff" transform="translate(62,26)"/>
<path d="M0 0 C3.75626559 -0.35773958 5.73929307 -0.13556761 9.125 1.625 C12.72270222 4.59701488 15.69985314 7.31804256 16.2421875 12.1640625 C16.24906727 14.11103723 16.13395677 16.05762684 16 18 C14.68 18 13.36 18 12 18 C11.8040625 17.32453125 11.608125 16.6490625 11.40625 15.953125 C9.68106543 10.53897243 9.68106543 10.53897243 5.953125 6.4453125 C3.53450401 5.22464209 3.53450401 5.22464209 0 4 C0 2.68 0 1.36 0 0 Z " fill="#fff" transform="translate(22,58)"/>
<path d="M0 0 C1.32 0 2.64 0 4 0 C4.375 3.1875 4.375 3.1875 4 7 C1.37855015 10.08020357 -0.15820361 11.74254459 -4.1796875 12.3046875 C-6.375 12.3125 -6.375 12.3125 -10 12 C-10 10.68 -10 9.36 -10 8 C-9.44570313 7.84144531 -8.89140625 7.68289062 -8.3203125 7.51953125 C-3.52015703 6.09623213 -3.52015703 6.09623213 -0.5 2.3125 C-0.335 1.549375 -0.17 0.78625 0 0 Z " fill="#fff" transform="translate(36,22)"/>
<path d="M0 0 C1.65 0 3.3 0 5 0 C5 3.96 5 7.92 5 12 C3.35 12 1.7 12 0 12 C0 8.04 0 4.08 0 0 Z " fill="#fff" transform="translate(75,74)"/>
<path d="M0 0 C1.65 0 3.3 0 5 0 C5 1.32 5 2.64 5 4 C3.35 4 1.7 4 0 4 C0 2.68 0 1.36 0 0 Z " fill="#fff" transform="translate(75,90)"/>
</svg>
