<svg width="60" height="60" viewBox="0 0 60 60" fill="none" xmlns="http://www.w3.org/2000/svg">
<rect width="60" height="60" rx="16" fill="white"/>
<path d="M39.4993 38.7511C41.7999 37.4723 41.5018 32.5448 38.8355 27.7373C37.6918 25.6673 36.2855 23.9911 34.8793 22.8192C33.1977 24.0671 31.1608 24.7439 29.0668 24.7504C26.9696 24.7458 24.9291 24.0689 23.2449 22.8192C21.8386 23.9911 20.4361 25.6692 19.2886 27.7373C16.6205 32.5429 16.3261 37.4723 18.6324 38.7511C19.6599 39.3361 20.7436 38.8973 21.8611 37.8211C21.6519 38.9806 21.5471 40.1566 21.548 41.3348C21.548 46.8436 23.6211 54.3752 26.2517 54.3752C27.838 54.3752 28.688 49.6729 29.0649 47.1923C29.4399 49.6561 30.3017 54.3752 31.8767 54.3752C34.4961 54.3752 36.5761 46.8417 36.5761 41.3348C36.5761 40.0973 36.4599 38.9161 36.2611 37.8229C37.3861 38.9011 38.4661 39.3473 39.4974 38.7548L39.4993 38.7511ZM29.063 22.8754C30.1268 22.8913 31.1832 22.6955 32.1706 22.2993C33.158 21.9031 34.0567 21.3144 34.8145 20.5676C35.5723 19.8208 36.174 18.9307 36.5845 17.9492C36.9951 16.9677 37.2063 15.9143 37.2059 14.8504C37.2056 13.7865 36.9936 12.7332 36.5824 11.752C36.1711 10.7708 35.5688 9.88111 34.8105 9.13484C34.0522 8.38856 33.1531 7.80056 32.1654 7.40505C31.1777 7.00954 30.1212 6.81443 29.0574 6.83106C26.951 6.86399 24.9421 7.72405 23.4645 9.22552C21.9868 10.727 21.159 12.7494 21.1597 14.856C21.1604 16.9626 21.9897 18.9845 23.4684 20.4849C24.9471 21.9853 26.9566 22.844 29.063 22.8754Z" fill="#F3C212"/>
</svg>
