<svg width="30" height="30" viewBox="0 0 30 30" fill="none" xmlns="http://www.w3.org/2000/svg">
<rect width="30" height="30" rx="15" fill="#FEE4BE"/>
<path d="M23.2653 11.617C22.9081 11.1146 22.3995 10.7002 21.7551 10.3856C21.5305 10.2756 21.2621 10.2756 21.0367 10.3856C20.3923 10.701 19.8837 11.1153 19.5264 11.617C18.9102 12.4817 18.8564 13.4263 18.9195 14.0658C18.939 14.2667 19.0405 14.4479 19.2035 14.574C19.2628 14.6195 19.3221 14.6642 19.3821 14.7083L19.6325 14.8894C19.8837 15.0728 20.1638 15.2143 20.4641 15.3096C20.7145 15.3903 20.975 15.4358 21.2395 15.449L21.2403 16.3203H20.7722V15.7335C20.7722 15.6521 20.702 15.5869 20.6162 15.5869C20.5304 15.5869 20.4602 15.6521 20.4602 15.7335V16.3203H20.3042C20.2184 16.3203 20.1482 16.3855 20.1482 16.4669C20.1482 16.5484 20.2184 16.6136 20.3042 16.6136H20.4602V18.5204C20.4602 19.0059 20.2503 19.446 19.911 19.7643C19.7394 19.8134 19.5569 19.8405 19.3681 19.8405C18.336 19.8405 17.4959 19.0507 17.4959 18.0804V16.0268C18.0981 16.0268 18.588 15.5662 18.588 15V7.22599C18.588 6.65981 18.0981 6.19922 17.4959 6.19922H7.19904C6.59683 6.19922 6.10693 6.65979 6.10693 7.22599V15C6.10693 15.5662 6.59681 16.0268 7.19904 16.0268H8.29116C8.37696 16.0268 8.44717 15.9615 8.44717 15.8801C8.44717 15.7987 8.37696 15.7334 8.29116 15.7334H7.19904C6.76923 15.7334 6.41898 15.4041 6.41898 15V7.22601C6.41898 6.82191 6.76923 6.49262 7.19904 6.49262H17.4959C17.9257 6.49262 18.276 6.82191 18.276 7.22601V15C18.276 15.4041 17.9257 15.7334 17.4959 15.7334H9.07102C9.0523 15.7334 9.03436 15.7378 9.01719 15.7437C9.01329 15.7451 9.01017 15.7459 9.00627 15.7473C8.99067 15.7539 8.97585 15.7627 8.96337 15.7745C8.96103 15.7767 8.95947 15.7789 8.95791 15.7811C8.95245 15.7869 8.94621 15.7921 8.94153 15.7994C8.93763 15.8053 8.93529 15.8111 8.93217 15.8177C8.93061 15.8207 8.92905 15.8236 8.92749 15.8265C8.92046 15.8427 8.91734 15.8588 8.91656 15.8757C8.91578 15.8772 8.915 15.8786 8.915 15.8801C8.915 15.8823 8.91656 15.8838 8.91656 15.886C8.91734 15.9028 8.92046 15.919 8.92749 15.9351C8.92749 15.9358 8.92827 15.9366 8.92827 15.9373L9.39632 16.9641C9.4205 17.0183 9.47667 17.0535 9.53907 17.0535H10.0071V21.3072H9.07104C8.55464 21.3072 8.13495 21.7018 8.13495 22.1873V22.4807C8.13495 22.5621 8.20516 22.6273 8.29097 22.6273H8.29487C8.1958 22.7506 8.13495 22.9016 8.13495 23.0674C8.13495 23.4715 8.4852 23.8008 8.91501 23.8008C9.34482 23.8008 9.69508 23.4715 9.69508 23.0674C9.69508 22.9016 9.63423 22.7506 9.53516 22.6273H15.1595C15.0604 22.7506 14.9996 22.9016 14.9996 23.0674C14.9996 23.4715 15.3498 23.8008 15.7796 23.8008C16.2094 23.8008 16.5597 23.4715 16.5597 23.0674C16.5597 22.9016 16.4988 22.7506 16.3998 22.6273H16.4037C16.4895 22.6273 16.5597 22.5621 16.5597 22.4807V22.1873C16.5597 21.7018 16.14 21.3072 15.6236 21.3072H14.6875V17.6403C14.6875 17.5588 14.6173 17.4936 14.5315 17.4936C14.4457 17.4936 14.3755 17.5588 14.3755 17.6403V21.3072H10.3192V20.7205H10.7873C10.8731 20.7205 10.9433 20.6552 10.9433 20.5738C10.9433 20.4924 10.8731 20.4271 10.7873 20.4271H10.3192V19.6937H10.7873C10.8731 19.6937 10.9433 19.6285 10.9433 19.5471C10.9433 19.4657 10.8731 19.4004 10.7873 19.4004H10.3192V17.0535H15.1557C15.2181 17.0535 15.2743 17.0183 15.2992 16.9648L15.7267 16.0267H16.4038V18.5203C16.4038 19.6526 17.3836 20.5739 18.5881 20.5739C19.1615 20.5739 19.6826 20.3634 20.0734 20.0224C20.9322 19.7459 21.5524 18.9809 21.5524 18.0803V16.6135H21.7084C21.7942 16.6135 21.8644 16.5482 21.8644 16.4668C21.8644 16.3854 21.7942 16.3201 21.7084 16.3201H21.5524V15.4496C22.1335 15.4195 22.6991 15.2251 23.1593 14.89L23.4097 14.7081C23.4706 14.6641 23.5299 14.6193 23.5891 14.5739C23.7522 14.447 23.8536 14.2666 23.8731 14.0656C23.9355 13.4261 23.8816 12.4817 23.2653 11.617ZM9.3831 23.0675C9.3831 23.3103 9.17326 23.5076 8.91505 23.5076C8.65684 23.5076 8.44699 23.3103 8.44699 23.0675C8.44699 22.8247 8.65684 22.6275 8.91505 22.6275C9.17326 22.6275 9.3831 22.8247 9.3831 23.0675ZM16.2477 23.0675C16.2477 23.3103 16.0379 23.5076 15.7797 23.5076C15.5215 23.5076 15.3116 23.3103 15.3116 23.0675C15.3116 22.8247 15.5215 22.6275 15.7797 22.6275C16.0379 22.6275 16.2477 22.8247 16.2477 23.0675ZM14.5316 21.6007H15.6237C15.9677 21.6007 16.2477 21.864 16.2477 22.1874V22.3341H8.44711V22.1874C8.44711 21.864 8.72715 21.6007 9.07117 21.6007H14.5316ZM15.0527 16.7603H9.64203L9.30737 16.0269H15.3864L15.0527 16.7603ZM16.7158 18.5205V16.0269H17.1838V18.0806C17.1838 19.2034 18.1472 20.1173 19.3368 20.1327C19.1074 20.2273 18.8547 20.2808 18.5879 20.2808C17.5559 20.2808 16.7157 19.491 16.7157 18.5207L16.7158 18.5205ZM21.2401 18.0804C21.2401 18.6393 20.9609 19.1365 20.5279 19.4592C20.6832 19.1776 20.7721 18.8586 20.7721 18.5205V16.6137H21.2402L21.2401 18.0804ZM21.3962 13.6799C21.3103 13.6799 21.2401 13.7452 21.2401 13.8266V14.3363C20.8727 14.2681 20.595 13.963 20.595 13.5978C20.595 13.1827 20.9546 12.8446 21.3961 12.8446C21.8377 12.8446 22.1973 13.1827 22.1973 13.5978C22.1973 13.963 21.9196 14.2681 21.5521 14.3363V13.8266C21.5521 13.7452 21.482 13.6799 21.3962 13.6799ZM23.5617 14.0386C23.5492 14.1618 23.4884 14.271 23.3893 14.348C23.3331 14.392 23.2762 14.4346 23.2177 14.4764L22.9673 14.6583C22.5608 14.9538 22.0608 15.1225 21.5514 15.1533V14.6333C22.0912 14.5615 22.5086 14.1251 22.5086 13.5978C22.5086 13.0206 22.0094 12.5512 21.3954 12.5512C20.7815 12.5512 20.2823 13.0206 20.2823 13.5978C20.2823 14.1251 20.6996 14.5615 21.2394 14.6333V15.1548C21.0101 15.143 20.7823 15.1034 20.5647 15.033C20.2971 14.948 20.0475 14.8218 19.8236 14.6583L19.5732 14.4764C19.5155 14.4346 19.4585 14.392 19.4024 14.348C19.3033 14.2718 19.2425 14.1618 19.23 14.0385C19.1715 13.446 19.2206 12.5732 19.7854 11.7805C20.1138 11.3199 20.5826 10.9378 21.1802 10.6459C21.2472 10.6129 21.3213 10.5968 21.3954 10.5968C21.4696 10.5968 21.5429 10.6129 21.6107 10.6459C22.2083 10.9378 22.6779 11.3199 23.0055 11.7805C23.5711 12.5733 23.6202 13.446 23.5617 14.0386Z" fill="#FF9900"/>
<path d="M11.724 14.8533C11.724 15.1768 12.004 15.44 12.3481 15.44C12.6921 15.44 12.9721 15.1768 12.9721 14.8533C12.9721 14.5299 12.6921 14.2666 12.3481 14.2666C12.004 14.2666 11.724 14.5299 11.724 14.8533ZM12.6601 14.8533C12.6601 15.0154 12.5205 15.1467 12.3481 15.1467C12.1757 15.1467 12.036 15.0154 12.036 14.8533C12.036 14.6912 12.1757 14.56 12.3481 14.56C12.5205 14.56 12.6601 14.6912 12.6601 14.8533Z" fill="#FF9900"/>
<path d="M10.7877 14.707C10.7019 14.707 10.6317 14.7723 10.6317 14.8537C10.6317 14.9351 10.7019 15.0004 10.7877 15.0004H11.0997C11.1855 15.0004 11.2557 14.9351 11.2557 14.8537C11.2557 14.7723 11.1855 14.707 11.0997 14.707H10.7877Z" fill="#FF9900"/>
<path d="M9.69526 14.707C9.60945 14.707 9.53925 14.7723 9.53925 14.8537C9.53925 14.9351 9.60945 15.0004 9.69526 15.0004H10.0073C10.0931 15.0004 10.1633 14.9351 10.1633 14.8537C10.1633 14.7723 10.0931 14.707 10.0073 14.707H9.69526Z" fill="#FF9900"/>
<path d="M8.60285 15.0004H8.91488C9.00069 15.0004 9.0709 14.9351 9.0709 14.8537C9.0709 14.7723 9.00069 14.707 8.91488 14.707H8.60285C8.51704 14.707 8.44684 14.7723 8.44684 14.8537C8.44684 14.9351 8.51704 15.0004 8.60285 15.0004Z" fill="#FF9900"/>
<path d="M15.7777 14.707C15.6919 14.707 15.6217 14.7723 15.6217 14.8537C15.6217 14.9351 15.6919 15.0004 15.7777 15.0004H16.0897C16.1756 15.0004 16.2458 14.9351 16.2458 14.8537C16.2458 14.7723 16.1756 14.707 16.0897 14.707H15.7777Z" fill="#FF9900"/>
<path d="M14.6886 14.707C14.6028 14.707 14.5326 14.7723 14.5326 14.8537C14.5326 14.9351 14.6028 15.0004 14.6886 15.0004H15.0006C15.0864 15.0004 15.1567 14.9351 15.1567 14.8537C15.1567 14.7723 15.0864 14.707 15.0006 14.707H14.6886Z" fill="#FF9900"/>
<path d="M13.5962 14.707C13.5104 14.707 13.4402 14.7723 13.4402 14.8537C13.4402 14.9351 13.5104 15.0004 13.5962 15.0004H13.9082C13.994 15.0004 14.0642 14.9351 14.0642 14.8537C14.0642 14.7723 13.994 14.707 13.9082 14.707H13.5962Z" fill="#FF9900"/>
<path d="M17.4963 13.6804V7.51992C17.4963 7.35784 17.3567 7.22656 17.1843 7.22656H7.51131C7.33891 7.22656 7.19928 7.35784 7.19928 7.51992V13.6804C7.19928 13.8425 7.33891 13.9738 7.51131 13.9738H17.1843C17.3567 13.9738 17.4963 13.8425 17.4963 13.6804ZM7.51141 7.51992H14.376V13.6804H7.51141V7.51992ZM14.6882 7.51992H17.1844V13.6804H14.6882V7.51992Z" fill="#FF9900"/>
<path d="M8.29261 8.25283H9.2287C9.31451 8.25283 9.38471 8.18756 9.38471 8.10615C9.38471 8.02475 9.31451 7.95947 9.2287 7.95947H8.29261C8.2068 7.95947 8.1366 8.02475 8.1366 8.10615C8.1366 8.18756 8.2068 8.25283 8.29261 8.25283Z" fill="#FF9900"/>
<path d="M9.85035 8.25283H10.1624C10.2482 8.25283 10.3184 8.18756 10.3184 8.10615C10.3184 8.02475 10.2482 7.95947 10.1624 7.95947H9.85035C9.76454 7.95947 9.69434 8.02475 9.69434 8.10615C9.69434 8.18756 9.76454 8.25283 9.85035 8.25283Z" fill="#FF9900"/>
<path d="M8.29261 8.98623H9.2287C9.31451 8.98623 9.38471 8.92096 9.38471 8.83955C9.38471 8.75814 9.31451 8.69287 9.2287 8.69287H8.29261C8.2068 8.69287 8.1366 8.75814 8.1366 8.83955C8.1366 8.92096 8.2068 8.98623 8.29261 8.98623Z" fill="#FF9900"/>
<path d="M9.85035 8.98623H10.1624C10.2482 8.98623 10.3184 8.92096 10.3184 8.83955C10.3184 8.75814 10.2482 8.69287 10.1624 8.69287H9.85035C9.76454 8.69287 9.69434 8.75814 9.69434 8.83955C9.69434 8.92096 9.76454 8.98623 9.85035 8.98623Z" fill="#FF9900"/>
<path d="M8.29261 10.3065H8.95334L9.39018 11.8121C9.40812 11.8745 9.4674 11.9185 9.53605 11.9199C9.60392 11.9221 9.66632 11.8811 9.68817 11.8195L10.3286 10.0124L10.6422 10.7978C10.6656 10.855 10.7241 10.8932 10.7888 10.8932H11.1664L11.7452 11.8459C11.7733 11.8921 11.8255 11.9199 11.8809 11.9199C11.8864 11.9199 11.8911 11.9199 11.8965 11.9192C11.9582 11.9133 12.0096 11.8745 12.0291 11.8194L12.6696 10.0123L12.9832 10.7978C13.0058 10.855 13.0643 10.8932 13.129 10.8932H13.5971C13.6829 10.8932 13.7531 10.8279 13.7531 10.7465C13.7531 10.6651 13.6829 10.5998 13.5971 10.5998H13.2375L12.8077 9.5217C12.7843 9.4645 12.7258 9.42636 12.661 9.42636H12.6579C12.5916 9.42783 12.5339 9.46743 12.5128 9.52684L11.8435 11.416L11.3926 10.6738C11.3645 10.6276 11.313 10.5997 11.2569 10.5997H10.8973L10.4674 9.52161C10.444 9.46441 10.3855 9.42627 10.3208 9.42627H10.3177C10.2514 9.42774 10.1936 9.46734 10.1726 9.52675L9.55555 11.2671L9.22323 10.1208C9.20451 10.057 9.14288 10.013 9.07267 10.013H8.29261C8.2068 10.013 8.1366 10.0783 8.1366 10.1597C8.1366 10.2411 8.20681 10.3065 8.29261 10.3065Z" fill="#FF9900"/>
<path d="M13.597 12.8003H8.29261C8.2068 12.8003 8.1366 12.8656 8.1366 12.947C8.1366 13.0284 8.2068 13.0937 8.29261 13.0937H13.597C13.6828 13.0937 13.753 13.0284 13.753 12.947C13.753 12.8656 13.6828 12.8003 13.597 12.8003Z" fill="#FF9900"/>
<path d="M16.5605 7.95947H15.3124C15.2266 7.95947 15.1564 8.02475 15.1564 8.10615C15.1564 8.18756 15.2266 8.25283 15.3124 8.25283H16.5605C16.6463 8.25283 16.7165 8.18756 16.7165 8.10615C16.7165 8.02475 16.6463 7.95947 16.5605 7.95947Z" fill="#FF9900"/>
<path d="M16.5605 8.83984H15.3124C15.2266 8.83984 15.1564 8.90512 15.1564 8.98652C15.1564 9.06793 15.2266 9.1332 15.3124 9.1332H16.5605C16.6463 9.1332 16.7165 9.06793 16.7165 8.98652C16.7165 8.90512 16.6463 8.83984 16.5605 8.83984Z" fill="#FF9900"/>
<path d="M16.5605 9.71973H15.3124C15.2266 9.71973 15.1564 9.785 15.1564 9.86641C15.1564 9.94781 15.2266 10.0131 15.3124 10.0131H16.5605C16.6463 10.0131 16.7165 9.94781 16.7165 9.86641C16.7165 9.785 16.6463 9.71973 16.5605 9.71973Z" fill="#FF9900"/>
</svg>
